<svg width="120" height="98" viewBox="0 0 120 98" fill="none" xmlns="http://www.w3.org/2000/svg">
<path d="M26.4082 66.478L53.635 93.7049C57.1814 97.2512 62.9317 97.2512 66.4781 93.7049L110.106 50.0779C121.049 39.1343 121.243 21.0361 110.374 10.0187C99.3213 -1.18639 81.2762 -1.23314 70.1647 9.87781L60.0568 19.9856L75.1286 35.0579C69.5456 40.6409 60.4953 40.6409 54.9117 35.0579L49.949 30.0941L26.4088 53.6343C22.8624 57.1807 22.8624 62.931 26.4088 66.4774L26.4082 66.478ZM80.0988 19.7967C85.5977 14.306 94.8028 14.306 100.3 19.7967C105.894 25.3822 105.894 34.4439 100.3 40.0282C94.8022 45.5201 85.5977 45.5201 80.0988 40.0282C74.5063 34.4439 74.5063 25.3822 80.0988 19.7967Z" fill="#B3BEFF"/>
<path d="M9.87783 49.9484L19.9869 60.0562L26.4087 66.478C22.8624 62.9317 22.8624 57.1813 26.4087 53.635L49.949 30.0947L54.9116 35.0586C60.4952 40.6416 69.5462 40.6416 75.1285 35.0586L60.0568 19.9863L49.949 9.87846C38.8842 -1.18638 20.9427 -1.18638 9.87846 9.87846C-1.18638 20.9433 -1.18638 38.8835 9.87846 49.949L9.87783 49.9484Z" fill="#FFC1E6"/>
</svg>