<?xml version="1.0" encoding="UTF-8"?>
<svg id="a" data-name="TagMate" xmlns="http://www.w3.org/2000/svg" viewBox="0 0 1899.64 1550.49">
  <path d="m418.05,1052.37l431.01,431.01c56.14,56.14,147.17,56.14,203.31,0l690.65-690.63c173.23-173.24,176.3-459.74,4.24-634.15-174.97-177.38-460.63-178.12-636.53-2.23l-160.01,160.01,238.59,238.6c-88.38,88.38-231.65,88.38-320.04,0l-78.56-78.58-372.65,372.65c-56.14,56.14-56.14,147.17,0,203.31Zm849.94-738.98c87.05-86.92,232.77-86.92,319.8,0,88.54,88.42,88.54,231.87,0,320.27-87.04,86.94-232.75,86.94-319.8,0-88.53-88.4-88.53-231.85,0-320.27Z" style="fill: #e5e9ff; stroke: #000; stroke-miterlimit: 10; stroke-width: 50px;"/>
  <path d="m156.37,790.7l160.03,160.01,101.66,101.66c-56.14-56.14-56.14-147.17,0-203.31l372.65-372.65,78.56,78.58c88.39,88.38,231.67,88.38,320.04,0l-238.59-238.6-160.01-160.01c-175.16-175.16-459.18-175.16-634.33,0-175.16,175.16-175.16,459.16,0,634.33Z" style="fill: #ffe9f6; stroke: #000; stroke-miterlimit: 10; stroke-width: 50px;"/>
</svg>