<svg width="320" height="262" viewBox="0 0 320 262" fill="none" xmlns="http://www.w3.org/2000/svg">
<path d="M74.2576 175.683L143.753 245.179C152.805 254.231 167.483 254.231 176.535 245.179L287.895 133.823C315.826 105.889 316.321 59.6943 288.579 31.5726C260.366 2.97195 214.307 2.85263 185.945 31.213L160.145 57.0129L198.615 95.4846C184.365 109.735 161.264 109.735 147.012 95.4846L134.345 82.8144L74.2592 142.9C65.2072 151.952 65.2072 166.63 74.2592 175.682L74.2576 175.683ZM211.301 56.5308C225.337 42.5159 248.833 42.5159 262.866 56.5308C277.142 70.7876 277.142 93.9174 262.866 108.171C248.831 122.189 225.337 122.189 211.301 108.171C197.027 93.9174 197.027 70.7876 211.301 56.5308Z" stroke="url(#paint0_linear_308_4994)" stroke-width="20" stroke-miterlimit="10"/>
<path d="M32.0644 133.492L57.8676 159.292L74.2592 175.683C65.2072 166.631 65.2072 151.954 74.2592 142.902L134.345 82.816L147.012 95.4862C161.264 109.737 184.366 109.737 198.615 95.4862L160.145 57.0145L134.345 31.2146C106.102 2.97192 60.3071 2.97192 32.066 31.2146C3.82336 59.4573 3.82336 105.249 32.066 133.494L32.0644 133.492Z" stroke="url(#paint1_linear_308_4994)" stroke-width="20" stroke-miterlimit="10"/>
<defs>
<linearGradient id="paint0_linear_308_4994" x1="292.852" y1="131" x2="28.8516" y2="131" gradientUnits="userSpaceOnUse">
<stop stop-color="#8D84FB"/>
<stop offset="1" stop-color="#FFBCE4"/>
</linearGradient>
<linearGradient id="paint1_linear_308_4994" x1="308.851" y1="92.858" x2="10.884" y2="92.858" gradientUnits="userSpaceOnUse">
<stop stop-color="#8D84FB"/>
<stop offset="1" stop-color="#FFBCE4"/>
</linearGradient>
</defs>
</svg>
